<?xml version="1.0" standalone="no"?>
<!DOCTYPE svg PUBLIC "-//W3C//DTD SVG 20010904//EN"
 "http://www.w3.org/TR/2001/REC-SVG-20010904/DTD/svg10.dtd">
<svg version="1.0" xmlns="http://www.w3.org/2000/svg"
 width="567.000000pt" height="440.000000pt" viewBox="0 0 567.000000 440.000000"
 preserveAspectRatio="xMidYMid meet">

<g transform="translate(0.000000,440.000000) scale(0.100000,-0.100000)"
fill="#000000" stroke="none">
<path d="M2700 4383 c-173 -17 -365 -68 -505 -134 -228 -108 -371 -219 -532
-416 -43 -51 -153 -221 -153 -234 0 -4 17 -13 37 -20 33 -11 38 -10 48 6 124
215 336 433 526 539 81 46 273 118 379 143 194 45 444 42 634 -7 79 -21 247
-85 326 -125 177 -90 410 -316 515 -500 43 -75 42 -75 76 -63 16 5 31 14 34
19 24 38 -260 391 -400 496 -110 83 -288 174 -436 224 -181 60 -393 88 -549
72z"/>
<path d="M2710 3987 c-226 -52 -365 -289 -305 -521 20 -77 56 -136 116 -190
64 -58 123 -85 209 -99 128 -19 236 15 336 106 137 125 164 330 68 507 -80
147 -266 233 -424 197z m215 -124 c41 -22 99 -78 128 -124 30 -49 49 -138 42
-194 -7 -62 -52 -161 -86 -191 -13 -12 -48 -34 -78 -50 -48 -26 -65 -29 -140
-29 -77 0 -93 4 -148 33 -67 34 -112 87 -138 163 -20 55 -19 164 2 224 21 62
113 156 175 179 61 22 190 16 243 -11z"/>
<path d="M1376 3488 c-56 -15 -128 -90 -145 -150 -43 -152 95 -293 244 -251
28 8 59 16 71 19 13 4 45 -7 82 -25 271 -137 678 -252 979 -277 46 -3 87 -12
92 -18 7 -8 -34 -79 -127 -222 -75 -115 -206 -319 -291 -453 -84 -133 -161
-251 -170 -261 -14 -17 -22 -18 -56 -10 -85 20 -188 -45 -219 -138 -22 -63
-20 -98 8 -159 33 -71 87 -106 170 -111 84 -5 139 24 184 98 41 69 43 129 7
200 -14 27 -25 53 -25 58 0 5 49 87 110 183 60 96 133 212 162 258 29 46 90
140 136 210 46 69 106 163 134 209 31 51 56 82 64 80 8 -2 47 -53 87 -115 39
-62 165 -255 278 -430 113 -175 217 -337 230 -360 l24 -41 -25 -44 c-30 -52
-34 -145 -8 -194 24 -44 76 -92 116 -105 54 -18 134 -7 182 25 48 32 90 110
90 168 0 45 -25 114 -54 146 -46 52 -144 80 -203 59 -21 -7 -33 7 -139 170
-65 98 -137 210 -162 248 -25 39 -77 120 -117 180 -40 61 -103 157 -140 215
-38 58 -69 114 -69 125 -1 17 8 21 69 28 331 37 603 110 940 253 83 35 155 64
161 64 7 0 31 -9 55 -20 149 -67 315 65 279 223 -43 193 -269 235 -372 70 -19
-32 -23 -51 -23 -118 l0 -80 -60 -29 c-265 -129 -619 -234 -930 -275 -104 -14
-355 -14 -447 0 -307 47 -559 120 -821 237 -114 51 -120 56 -106 106 40 146
-102 292 -245 254z m94 -113 c58 -30 76 -90 43 -145 -41 -71 -144 -66 -179 8
-23 50 -10 99 35 129 40 27 61 29 101 8z m2786 -19 c40 -40 44 -75 14 -124
-25 -41 -58 -56 -103 -48 -45 8 -77 45 -84 95 -5 36 -2 44 30 76 48 48 95 49
143 1z m-2192 -1626 c31 -12 66 -65 66 -102 0 -17 -13 -40 -34 -62 -43 -46
-91 -49 -136 -8 -87 78 -5 214 104 172z m1569 -30 c86 -95 -52 -232 -143 -141
-40 40 -48 76 -24 120 37 69 115 79 167 21z"/>
<path d="M1333 2964 c-10 -26 5 -271 22 -364 19 -107 63 -251 108 -355 62
-143 181 -327 262 -405 l36 -35 25 29 25 28 -36 42 c-121 141 -236 342 -293
511 -47 139 -62 227 -69 393 -6 151 -6 154 -30 163 -34 13 -43 11 -50 -7z"/>
<path d="M4225 2971 l-30 -6 -6 -150 c-10 -231 -49 -385 -149 -586 -54 -110
-124 -216 -203 -308 l-55 -65 21 -28 c11 -15 26 -28 33 -28 12 0 97 101 156
185 177 255 278 572 278 872 0 61 -3 114 -7 116 -5 2 -21 1 -38 -2z"/>
<path d="M1045 2083 c-61 -33 -85 -76 -85 -155 0 -61 -16 -97 -94 -213 -116
-172 -303 -343 -502 -460 l-94 -56 0 -54 c0 -64 5 -66 68 -30 31 18 44 21 48
12 2 -7 3 -96 2 -197 l-3 -185 -57 -3 -58 -3 0 -94 0 -95 345 0 345 0 0 -275
0 -275 160 0 160 0 0 275 0 275 1530 0 1530 0 0 -275 0 -275 165 0 165 0 0
275 0 275 368 2 367 3 3 93 3 92 -76 0 -75 0 0 190 c0 106 4 190 9 190 5 0 35
-13 66 -30 31 -17 61 -30 67 -30 5 0 8 25 6 56 -3 55 -4 57 -48 81 -242 135
-410 268 -535 423 -121 151 -151 208 -159 304 -3 47 -13 91 -24 109 -35 60
-131 85 -206 53 -56 -23 -82 -70 -95 -165 -24 -186 -169 -382 -387 -527 -111
-74 -137 -87 -254 -139 -398 -175 -896 -223 -1345 -130 -204 42 -451 146 -611
256 -156 108 -306 270 -411 446 -42 70 -53 97 -53 131 0 64 -31 111 -88 133
-36 14 -114 10 -147 -8z m303 -470 c33 -43 72 -89 86 -102 l26 -24 0 -374 0
-373 -90 0 -90 0 0 475 c0 261 2 475 4 475 2 0 31 -35 64 -77z m-388 -418 l0
-455 -75 0 -75 0 0 366 0 367 33 36 c52 60 75 88 92 115 10 14 19 26 21 26 2
0 4 -205 4 -455z m3869 260 c8 -4 11 -123 11 -361 l0 -354 -85 0 -85 0 0 450
0 451 74 -90 c41 -49 80 -92 85 -96z m-489 -275 l0 -440 -85 0 -85 0 0 341 0
341 65 71 c36 39 73 83 83 99 9 15 18 28 19 28 2 0 3 -198 3 -440z m-2578 64
l68 -39 0 -232 0 -233 -130 0 -130 0 0 320 0 320 63 -48 c34 -27 92 -66 129
-88z m-1062 -194 l0 -311 -102 3 -103 3 -3 214 c-2 117 -1 223 2 235 3 11 26
34 51 50 25 16 69 48 98 72 29 24 53 44 55 44 1 0 2 -140 2 -310z m4290 260
c11 -13 136 -103 148 -107 9 -4 12 -60 12 -234 l0 -229 -100 0 -100 0 0 301
c0 286 1 301 18 288 9 -8 19 -16 22 -19z m-922 -272 l-3 -293 -132 -3 -133 -3
0 220 0 219 73 40 c39 22 97 57 127 76 30 20 58 36 63 36 4 0 6 -132 5 -292z
m-2065 86 c17 -10 68 -29 112 -44 l80 -27 3 -156 3 -157 -131 0 -130 0 0 200
c0 221 -1 217 63 184z m1687 -189 l0 -195 -130 0 -131 0 3 153 3 152 120 41
c66 23 123 42 128 43 4 1 7 -87 7 -194z m-1220 60 c52 -9 99 -20 103 -24 4 -4
6 -57 5 -117 l-3 -109 -132 -3 -133 -3 0 142 0 142 33 -6 c17 -3 75 -13 127
-22z m850 -115 l0 -141 -132 3 -133 3 0 115 0 115 120 21 c66 12 126 22 133
23 9 1 12 -33 12 -139z m-370 -25 l0 -115 -130 0 -130 0 0 115 0 115 130 0
130 0 0 -115z"/>
<path d="M2306 1498 c-18 -43 -11 -48 111 -82 195 -54 394 -69 576 -41 104 16
287 61 300 74 11 11 -20 71 -37 71 -7 0 -38 -9 -69 -19 -111 -38 -225 -55
-387 -55 -167 0 -271 15 -403 60 -39 13 -72 24 -74 24 -1 0 -9 -15 -17 -32z"/>
</g>
</svg>
